<svg id="svg2" xmlns="http://www.w3.org/2000/svg" xmlns:xlink="http://www.w3.org/1999/xlink" viewBox="0 0 300 300"><defs><symbol id="Small_Dot" data-name="Small Dot" viewBox="0 0 2.5 2.5"><path d="M2.5,1.25A1.25,1.25,0,0,1,1.25,2.5h0A1.25,1.25,0,0,1,0,1.25H0A1.25,1.25,0,0,1,1.25,0h0A1.25,1.25,0,0,1,2.5,1.25Z" style="fill:#d4d4d4"/></symbol><symbol id="Big_dot" data-name="Big dot" viewBox="0 0 7.5 7.5"><path d="M7.5,3.75A3.75,3.75,0,0,1,3.75,7.5h0A3.75,3.75,0,0,1,0,3.75H0A3.75,3.75,0,0,1,3.75,0h0A3.75,3.75,0,0,1,7.5,3.75Z" style="fill:#9b9b9b"/></symbol></defs><g id="Little_Dots" data-name="Little Dots"><g id="Row"><use width="2.5" height="2.5" transform="translate(-1.25 -1.25)" xlink:href="#Small_Dot"/><use width="2.5" height="2.5" transform="translate(-1.25 23.75)" xlink:href="#Small_Dot"/><use width="2.5" height="2.5" transform="translate(-1.25 48.75)" xlink:href="#Small_Dot"/><use width="2.5" height="2.5" transform="translate(-1.25 73.75)" xlink:href="#Small_Dot"/><use width="2.5" height="2.5" transform="translate(-1.25 98.75)" xlink:href="#Small_Dot"/><use width="2.5" height="2.5" transform="translate(-1.25 123.75)" xlink:href="#Small_Dot"/><use width="2.5" height="2.5" transform="translate(-1.25 148.75)" xlink:href="#Small_Dot"/><use width="2.5" height="2.5" transform="translate(-1.25 173.75)" xlink:href="#Small_Dot"/><use width="2.5" height="2.5" transform="translate(-1.25 198.75)" xlink:href="#Small_Dot"/><use width="2.5" height="2.5" transform="translate(-1.25 223.75)" xlink:href="#Small_Dot"/><use width="2.5" height="2.5" transform="translate(-1.25 248.75)" xlink:href="#Small_Dot"/><use width="2.5" height="2.5" transform="translate(-1.25 273.75)" xlink:href="#Small_Dot"/><use width="2.5" height="2.5" transform="translate(-1.25 298.75)" xlink:href="#Small_Dot"/></g><g id="Row-2" data-name="Row"><use width="2.5" height="2.5" transform="translate(23.75 -1.25)" xlink:href="#Small_Dot"/><use width="2.5" height="2.5" transform="translate(23.75 23.75)" xlink:href="#Small_Dot"/><use width="2.5" height="2.5" transform="translate(23.75 48.75)" xlink:href="#Small_Dot"/><use width="2.5" height="2.5" transform="translate(23.75 73.75)" xlink:href="#Small_Dot"/><use width="2.5" height="2.5" transform="translate(23.75 98.75)" xlink:href="#Small_Dot"/><use width="2.5" height="2.5" transform="translate(23.75 123.75)" xlink:href="#Small_Dot"/><use width="2.5" height="2.5" transform="translate(23.75 148.75)" xlink:href="#Small_Dot"/><use width="2.5" height="2.5" transform="translate(23.75 173.75)" xlink:href="#Small_Dot"/><use width="2.5" height="2.5" transform="translate(23.75 198.75)" xlink:href="#Small_Dot"/><use width="2.5" height="2.5" transform="translate(23.75 223.75)" xlink:href="#Small_Dot"/><use width="2.5" height="2.5" transform="translate(23.75 248.75)" xlink:href="#Small_Dot"/><use width="2.5" height="2.5" transform="translate(23.75 273.75)" xlink:href="#Small_Dot"/><use width="2.5" height="2.5" transform="translate(23.75 298.75)" xlink:href="#Small_Dot"/></g><g id="Row-3" data-name="Row"><use width="2.5" height="2.5" transform="translate(48.75 -1.25)" xlink:href="#Small_Dot"/><use width="2.5" height="2.5" transform="translate(48.75 23.75)" xlink:href="#Small_Dot"/><use width="2.5" height="2.5" transform="translate(48.75 48.75)" xlink:href="#Small_Dot"/><use width="2.5" height="2.5" transform="translate(48.75 73.75)" xlink:href="#Small_Dot"/><use width="2.5" height="2.5" transform="translate(48.75 98.75)" xlink:href="#Small_Dot"/><use width="2.5" height="2.5" transform="translate(48.75 123.75)" xlink:href="#Small_Dot"/><use width="2.5" height="2.5" transform="translate(48.75 148.75)" xlink:href="#Small_Dot"/><use width="2.5" height="2.5" transform="translate(48.75 173.75)" xlink:href="#Small_Dot"/><use width="2.5" height="2.5" transform="translate(48.75 198.75)" xlink:href="#Small_Dot"/><use width="2.5" height="2.5" transform="translate(48.75 223.75)" xlink:href="#Small_Dot"/><use width="2.5" height="2.5" transform="translate(48.75 248.75)" xlink:href="#Small_Dot"/><use width="2.5" height="2.5" transform="translate(48.75 273.75)" xlink:href="#Small_Dot"/><use width="2.5" height="2.5" transform="translate(48.75 298.75)" xlink:href="#Small_Dot"/></g><g id="Row-4" data-name="Row"><use width="2.5" height="2.5" transform="translate(73.75 -1.25)" xlink:href="#Small_Dot"/><use width="2.5" height="2.5" transform="translate(73.75 23.75)" xlink:href="#Small_Dot"/><use width="2.5" height="2.5" transform="translate(73.75 48.75)" xlink:href="#Small_Dot"/><use width="2.5" height="2.5" transform="translate(73.75 73.75)" xlink:href="#Small_Dot"/><use width="2.5" height="2.5" transform="translate(73.75 98.75)" xlink:href="#Small_Dot"/><use width="2.5" height="2.5" transform="translate(73.75 123.75)" xlink:href="#Small_Dot"/><use width="2.5" height="2.5" transform="translate(73.75 148.75)" xlink:href="#Small_Dot"/><use width="2.5" height="2.5" transform="translate(73.75 173.75)" xlink:href="#Small_Dot"/><use width="2.5" height="2.5" transform="translate(73.75 198.75)" xlink:href="#Small_Dot"/><use width="2.5" height="2.5" transform="translate(73.75 223.75)" xlink:href="#Small_Dot"/><use width="2.5" height="2.5" transform="translate(73.75 248.75)" xlink:href="#Small_Dot"/><use width="2.5" height="2.5" transform="translate(73.75 273.75)" xlink:href="#Small_Dot"/><use width="2.5" height="2.5" transform="translate(73.75 298.75)" xlink:href="#Small_Dot"/></g><g id="Row-5" data-name="Row"><use width="2.5" height="2.5" transform="translate(98.75 -1.25)" xlink:href="#Small_Dot"/><use width="2.5" height="2.5" transform="translate(98.75 23.75)" xlink:href="#Small_Dot"/><use width="2.5" height="2.5" transform="translate(98.75 48.75)" xlink:href="#Small_Dot"/><use width="2.5" height="2.5" transform="translate(98.75 73.75)" xlink:href="#Small_Dot"/><use width="2.5" height="2.5" transform="translate(98.75 98.75)" xlink:href="#Small_Dot"/><use width="2.5" height="2.5" transform="translate(98.75 123.75)" xlink:href="#Small_Dot"/><use width="2.5" height="2.5" transform="translate(98.75 148.75)" xlink:href="#Small_Dot"/><use width="2.5" height="2.5" transform="translate(98.75 173.75)" xlink:href="#Small_Dot"/><use width="2.5" height="2.5" transform="translate(98.75 198.75)" xlink:href="#Small_Dot"/><use width="2.5" height="2.5" transform="translate(98.75 223.75)" xlink:href="#Small_Dot"/><use width="2.5" height="2.5" transform="translate(98.75 248.75)" xlink:href="#Small_Dot"/><use width="2.5" height="2.5" transform="translate(98.75 273.75)" xlink:href="#Small_Dot"/><use width="2.5" height="2.5" transform="translate(98.75 298.75)" xlink:href="#Small_Dot"/></g><g id="Row-6" data-name="Row"><use width="2.5" height="2.5" transform="translate(123.75 -1.25)" xlink:href="#Small_Dot"/><use width="2.5" height="2.5" transform="translate(123.75 23.75)" xlink:href="#Small_Dot"/><use width="2.5" height="2.5" transform="translate(123.75 48.75)" xlink:href="#Small_Dot"/><use width="2.5" height="2.5" transform="translate(123.75 73.75)" xlink:href="#Small_Dot"/><use width="2.5" height="2.5" transform="translate(123.75 98.75)" xlink:href="#Small_Dot"/><use width="2.5" height="2.5" transform="translate(123.75 123.75)" xlink:href="#Small_Dot"/><use width="2.5" height="2.5" transform="translate(123.75 148.75)" xlink:href="#Small_Dot"/><use width="2.5" height="2.5" transform="translate(123.75 173.75)" xlink:href="#Small_Dot"/><use width="2.5" height="2.5" transform="translate(123.75 198.75)" xlink:href="#Small_Dot"/><use width="2.5" height="2.5" transform="translate(123.75 223.75)" xlink:href="#Small_Dot"/><use width="2.5" height="2.5" transform="translate(123.75 248.75)" xlink:href="#Small_Dot"/><use width="2.5" height="2.5" transform="translate(123.75 273.75)" xlink:href="#Small_Dot"/><use width="2.5" height="2.5" transform="translate(123.75 298.75)" xlink:href="#Small_Dot"/></g><g id="Row-7" data-name="Row"><use width="2.5" height="2.5" transform="translate(148.75 -1.25)" xlink:href="#Small_Dot"/><use width="2.5" height="2.5" transform="translate(148.75 23.75)" xlink:href="#Small_Dot"/><use width="2.5" height="2.5" transform="translate(148.75 48.75)" xlink:href="#Small_Dot"/><use width="2.5" height="2.5" transform="translate(148.75 73.75)" xlink:href="#Small_Dot"/><use width="2.5" height="2.5" transform="translate(148.75 98.75)" xlink:href="#Small_Dot"/><use width="2.5" height="2.5" transform="translate(148.75 123.75)" xlink:href="#Small_Dot"/><use width="2.5" height="2.5" transform="translate(148.75 148.75)" xlink:href="#Small_Dot"/><use width="2.5" height="2.5" transform="translate(148.75 173.75)" xlink:href="#Small_Dot"/><use width="2.5" height="2.5" transform="translate(148.75 198.75)" xlink:href="#Small_Dot"/><use width="2.5" height="2.5" transform="translate(148.75 223.75)" xlink:href="#Small_Dot"/><use width="2.5" height="2.5" transform="translate(148.75 248.75)" xlink:href="#Small_Dot"/><use width="2.5" height="2.5" transform="translate(148.75 273.75)" xlink:href="#Small_Dot"/><use width="2.5" height="2.5" transform="translate(148.75 298.75)" xlink:href="#Small_Dot"/></g><g id="Row-8" data-name="Row"><use width="2.5" height="2.5" transform="translate(173.75 -1.25)" xlink:href="#Small_Dot"/><use width="2.5" height="2.5" transform="translate(173.75 23.75)" xlink:href="#Small_Dot"/><use width="2.5" height="2.5" transform="translate(173.75 48.75)" xlink:href="#Small_Dot"/><use width="2.5" height="2.5" transform="translate(173.75 73.75)" xlink:href="#Small_Dot"/><use width="2.5" height="2.5" transform="translate(173.75 98.75)" xlink:href="#Small_Dot"/><use width="2.5" height="2.5" transform="translate(173.75 123.75)" xlink:href="#Small_Dot"/><use width="2.5" height="2.5" transform="translate(173.75 148.75)" xlink:href="#Small_Dot"/><use width="2.5" height="2.5" transform="translate(173.75 173.75)" xlink:href="#Small_Dot"/><use width="2.5" height="2.5" transform="translate(173.75 198.75)" xlink:href="#Small_Dot"/><use width="2.5" height="2.5" transform="translate(173.75 223.75)" xlink:href="#Small_Dot"/><use width="2.5" height="2.5" transform="translate(173.75 248.75)" xlink:href="#Small_Dot"/><use width="2.5" height="2.5" transform="translate(173.75 273.75)" xlink:href="#Small_Dot"/><use width="2.5" height="2.5" transform="translate(173.75 298.75)" xlink:href="#Small_Dot"/></g><g id="Row-9" data-name="Row"><use width="2.5" height="2.5" transform="translate(198.75 -1.25)" xlink:href="#Small_Dot"/><use width="2.5" height="2.5" transform="translate(198.75 23.75)" xlink:href="#Small_Dot"/><use width="2.5" height="2.5" transform="translate(198.75 48.75)" xlink:href="#Small_Dot"/><use width="2.5" height="2.5" transform="translate(198.75 73.75)" xlink:href="#Small_Dot"/><use width="2.5" height="2.5" transform="translate(198.75 98.75)" xlink:href="#Small_Dot"/><use width="2.5" height="2.5" transform="translate(198.75 123.75)" xlink:href="#Small_Dot"/><use width="2.5" height="2.5" transform="translate(198.75 148.75)" xlink:href="#Small_Dot"/><use width="2.5" height="2.5" transform="translate(198.75 173.75)" xlink:href="#Small_Dot"/><use width="2.5" height="2.5" transform="translate(198.75 198.75)" xlink:href="#Small_Dot"/><use width="2.5" height="2.5" transform="translate(198.75 223.75)" xlink:href="#Small_Dot"/><use width="2.5" height="2.5" transform="translate(198.75 248.75)" xlink:href="#Small_Dot"/><use width="2.5" height="2.5" transform="translate(198.75 273.75)" xlink:href="#Small_Dot"/><use width="2.5" height="2.5" transform="translate(198.75 298.75)" xlink:href="#Small_Dot"/></g><g id="Row-10" data-name="Row"><use width="2.5" height="2.5" transform="translate(223.75 -1.25)" xlink:href="#Small_Dot"/><use width="2.5" height="2.5" transform="translate(223.75 23.75)" xlink:href="#Small_Dot"/><use width="2.5" height="2.5" transform="translate(223.75 48.75)" xlink:href="#Small_Dot"/><use width="2.5" height="2.5" transform="translate(223.75 73.75)" xlink:href="#Small_Dot"/><use width="2.5" height="2.5" transform="translate(223.75 98.75)" xlink:href="#Small_Dot"/><use width="2.5" height="2.5" transform="translate(223.75 123.75)" xlink:href="#Small_Dot"/><use width="2.5" height="2.5" transform="translate(223.75 148.75)" xlink:href="#Small_Dot"/><use width="2.5" height="2.5" transform="translate(223.75 173.75)" xlink:href="#Small_Dot"/><use width="2.5" height="2.5" transform="translate(223.75 198.75)" xlink:href="#Small_Dot"/><use width="2.5" height="2.5" transform="translate(223.75 223.75)" xlink:href="#Small_Dot"/><use width="2.5" height="2.5" transform="translate(223.75 248.75)" xlink:href="#Small_Dot"/><use width="2.5" height="2.5" transform="translate(223.75 273.75)" xlink:href="#Small_Dot"/><use width="2.5" height="2.5" transform="translate(223.75 298.75)" xlink:href="#Small_Dot"/></g><g id="Row-11" data-name="Row"><use width="2.5" height="2.5" transform="translate(248.75 -1.25)" xlink:href="#Small_Dot"/><use width="2.5" height="2.5" transform="translate(248.75 23.75)" xlink:href="#Small_Dot"/><use width="2.5" height="2.5" transform="translate(248.75 48.75)" xlink:href="#Small_Dot"/><use width="2.5" height="2.5" transform="translate(248.75 73.75)" xlink:href="#Small_Dot"/><use width="2.5" height="2.5" transform="translate(248.75 98.75)" xlink:href="#Small_Dot"/><use width="2.5" height="2.5" transform="translate(248.75 123.75)" xlink:href="#Small_Dot"/><use width="2.5" height="2.5" transform="translate(248.75 148.75)" xlink:href="#Small_Dot"/><use width="2.5" height="2.5" transform="translate(248.75 173.75)" xlink:href="#Small_Dot"/><use width="2.5" height="2.5" transform="translate(248.75 198.75)" xlink:href="#Small_Dot"/><use width="2.5" height="2.5" transform="translate(248.75 223.75)" xlink:href="#Small_Dot"/><use width="2.5" height="2.5" transform="translate(248.75 248.75)" xlink:href="#Small_Dot"/><use width="2.5" height="2.5" transform="translate(248.75 273.75)" xlink:href="#Small_Dot"/><use width="2.5" height="2.5" transform="translate(248.75 298.75)" xlink:href="#Small_Dot"/></g><g id="Row-12" data-name="Row"><use width="2.5" height="2.5" transform="translate(273.75 -1.25)" xlink:href="#Small_Dot"/><use width="2.5" height="2.5" transform="translate(273.75 23.75)" xlink:href="#Small_Dot"/><use width="2.5" height="2.5" transform="translate(273.75 48.75)" xlink:href="#Small_Dot"/><use width="2.5" height="2.5" transform="translate(273.75 73.75)" xlink:href="#Small_Dot"/><use width="2.5" height="2.5" transform="translate(273.75 98.75)" xlink:href="#Small_Dot"/><use width="2.5" height="2.5" transform="translate(273.75 123.75)" xlink:href="#Small_Dot"/><use width="2.5" height="2.5" transform="translate(273.75 148.75)" xlink:href="#Small_Dot"/><use width="2.5" height="2.5" transform="translate(273.75 173.75)" xlink:href="#Small_Dot"/><use width="2.5" height="2.5" transform="translate(273.75 198.75)" xlink:href="#Small_Dot"/><use width="2.5" height="2.5" transform="translate(273.75 223.75)" xlink:href="#Small_Dot"/><use width="2.5" height="2.5" transform="translate(273.75 248.75)" xlink:href="#Small_Dot"/><use width="2.5" height="2.5" transform="translate(273.75 273.75)" xlink:href="#Small_Dot"/><use width="2.5" height="2.5" transform="translate(273.75 298.75)" xlink:href="#Small_Dot"/></g><g id="Row-13" data-name="Row"><use width="2.5" height="2.5" transform="translate(298.75 -1.25)" xlink:href="#Small_Dot"/><use width="2.5" height="2.5" transform="translate(298.75 23.75)" xlink:href="#Small_Dot"/><use width="2.5" height="2.5" transform="translate(298.75 48.75)" xlink:href="#Small_Dot"/><use width="2.5" height="2.5" transform="translate(298.75 73.75)" xlink:href="#Small_Dot"/><use width="2.5" height="2.5" transform="translate(298.75 98.75)" xlink:href="#Small_Dot"/><use width="2.5" height="2.5" transform="translate(298.75 123.75)" xlink:href="#Small_Dot"/><use width="2.5" height="2.5" transform="translate(298.75 148.75)" xlink:href="#Small_Dot"/><use width="2.5" height="2.5" transform="translate(298.75 173.75)" xlink:href="#Small_Dot"/><use width="2.5" height="2.5" transform="translate(298.75 198.75)" xlink:href="#Small_Dot"/><use width="2.5" height="2.5" transform="translate(298.75 223.75)" xlink:href="#Small_Dot"/><use width="2.5" height="2.5" transform="translate(298.75 248.75)" xlink:href="#Small_Dot"/><use width="2.5" height="2.5" transform="translate(298.75 273.75)" xlink:href="#Small_Dot"/><use width="2.5" height="2.5" transform="translate(298.75 298.75)" xlink:href="#Small_Dot"/></g></g><g id="BigDots"><use width="7.5" height="7.5" transform="translate(-1.88 -1.88) scale(0.5)" xlink:href="#Big_dot"/><use width="7.5" height="7.5" transform="translate(-1.88 98.12) scale(0.5)" xlink:href="#Big_dot"/><use width="7.5" height="7.5" transform="translate(-1.88 198.12) scale(0.5)" xlink:href="#Big_dot"/><use width="7.5" height="7.5" transform="translate(-1.88 298.12) scale(0.5)" xlink:href="#Big_dot"/><use width="7.5" height="7.5" transform="translate(98.13 -1.64) scale(0.5)" xlink:href="#Big_dot"/><use width="7.5" height="7.5" transform="translate(98.13 98.12) scale(0.5)" xlink:href="#Big_dot"/><use width="7.5" height="7.5" transform="translate(98.13 198.12) scale(0.5)" xlink:href="#Big_dot"/><use width="7.5" height="7.5" transform="translate(98.13 298.12) scale(0.5)" xlink:href="#Big_dot"/><use width="7.5" height="7.5" transform="translate(198.13 -1.64) scale(0.5)" xlink:href="#Big_dot"/><use width="7.5" height="7.5" transform="translate(198.13 98.12) scale(0.5)" xlink:href="#Big_dot"/><use width="7.5" height="7.5" transform="translate(198.13 198.12) scale(0.5)" xlink:href="#Big_dot"/><use width="7.5" height="7.5" transform="translate(198.13 298.12) scale(0.5)" xlink:href="#Big_dot"/><use width="7.5" height="7.5" transform="translate(298.13 -1.64) scale(0.5)" xlink:href="#Big_dot"/><use width="7.5" height="7.5" transform="translate(298.13 98.12) scale(0.5)" xlink:href="#Big_dot"/><use width="7.5" height="7.5" transform="translate(298.13 198.12) scale(0.5)" xlink:href="#Big_dot"/><use width="7.5" height="7.5" transform="translate(298.13 298.12) scale(0.5)" xlink:href="#Big_dot"/></g></svg>